<?xml version="1.0" encoding="utf-8"?>
<!-- Generator: Adobe Illustrator 13.0.0, SVG Export Plug-In . SVG Version: 6.00 Build 14948)  -->
<!DOCTYPE svg PUBLIC "-//W3C//DTD SVG 1.1//EN" "http://www.w3.org/Graphics/SVG/1.1/DTD/svg11.dtd">
<svg version="1.1" id="Layer_1" xmlns="http://www.w3.org/2000/svg" xmlns:xlink="http://www.w3.org/1999/xlink" x="0px" y="0px"
	 width="400px" height="400px" viewBox="0 0 400 400" enable-background="new 0 0 400 400" xml:space="preserve">
<g>
	<linearGradient id="SVGID_1_" gradientUnits="userSpaceOnUse" x1="200.7813" y1="18.6157" x2="200.7812" y2="382.2163">
		<stop  offset="0" style="stop-color:#64FD7F"/>
		<stop  offset="0.1698" style="stop-color:#54EC6E"/>
		<stop  offset="0.4095" style="stop-color:#45DB5D"/>
		<stop  offset="0.6725" style="stop-color:#3CD153"/>
		<stop  offset="1" style="stop-color:#39CE50"/>
	</linearGradient>
	<path fill="url(#SVGID_1_)" d="M382.581,352.216c0,16.5-13.5,30-30,30H48.98c-16.5,0-30-13.5-30-30v-303.6c0-16.5,13.5-30,30-30
		h303.601c16.5,0,30,13.5,30,30V352.216z"/>
</g>
<g>
	<g opacity="0.18">
		<polygon points="198.913,48.144 117.066,207.307 212.382,234.565 170.057,358.467 295.31,202.352 183.993,177.26 		"/>
		<path fill-rule="evenodd" clip-rule="evenodd" d="M317.333,103.773c5.466,0.414,11.591,4.596,14.418,7.914
			c2.598,3.05,6.372,9.2,6.229,15.057l0.219,165.209c-0.675,4.519-1.738,9.307-7.46,15.361c-5.543,5.214-10.04,8.395-15.803,8.561
			l-87.242,0.217l-16.517,22.604l103.759-0.22c12.718-1.299,22.125-4.371,33.139-15.361c7.616-7.599,12.373-17.873,13.131-28.881
			V124.419c-0.43-10.323-6.747-21.386-13.901-29.249c-8.452-9.29-18.387-13.859-30.393-14.989l-104.702-0.589l-3.096,22.806
			L317.333,103.773z"/>
		<path fill-rule="evenodd" clip-rule="evenodd" d="M86.786,103.773c-5.434,0.731-11.59,4.596-14.418,7.914
			c-2.598,3.05-6.373,9.2-6.229,15.057l-0.22,165.209c0.674,4.519,1.738,9.307,7.462,15.361c5.542,5.214,10.039,8.395,15.8,8.561
			l78.088,0.217l-7.295,22.604l-70.793-0.22c-12.717-1.299-22.124-4.371-33.138-15.361c-7.616-7.599-12.374-17.873-13.131-28.881
			V124.419c0.43-10.323,6.748-21.386,13.902-29.249c8.453-9.29,18.386-13.859,30.391-14.989l74.116-0.589l-10.753,22.806
			L86.786,103.773z"/>
	</g>
	<g>
		<g>
			<linearGradient id="SVGID_2_" gradientUnits="userSpaceOnUse" x1="113.1187" y1="130.939" x2="253.8522" y2="271.6725">
				<stop  offset="0" style="stop-color:#FFFFFF"/>
				<stop  offset="0.4374" style="stop-color:#FBFBFB"/>
				<stop  offset="0.867" style="stop-color:#EFEFEF"/>
				<stop  offset="1" style="stop-color:#EAEAEA"/>
			</linearGradient>
			<polygon fill="url(#SVGID_2_)" points="197.913,46.144 116.066,205.307 211.382,232.565 169.057,356.467 294.31,200.351 
				182.993,175.26 			"/>
			<linearGradient id="SVGID_3_" gradientUnits="userSpaceOnUse" x1="176.0752" y1="112.7261" x2="365.7697" y2="302.4206">
				<stop  offset="0" style="stop-color:#FFFFFF"/>
				<stop  offset="0.4374" style="stop-color:#FBFBFB"/>
				<stop  offset="0.867" style="stop-color:#EFEFEF"/>
				<stop  offset="1" style="stop-color:#EAEAEA"/>
			</linearGradient>
			<path fill-rule="evenodd" clip-rule="evenodd" fill="url(#SVGID_3_)" d="M316.333,101.773c5.466,0.414,11.591,4.596,14.418,7.914
				c2.598,3.05,6.372,9.2,6.229,15.057l0.219,165.209c-0.675,4.519-1.738,9.307-7.46,15.361c-5.543,5.214-10.04,8.395-15.803,8.561
				l-87.242,0.217l-16.517,22.604l103.759-0.22c12.718-1.299,22.125-4.371,33.139-15.361c7.616-7.599,12.373-17.873,13.131-28.881
				V122.419c-0.43-10.323-6.747-21.386-13.901-29.249c-8.452-9.29-18.387-13.859-30.393-14.989l-104.702-0.589l-3.096,22.806
				L316.333,101.773z"/>
			<linearGradient id="SVGID_4_" gradientUnits="userSpaceOnUse" x1="28.6147" y1="120.2856" x2="202.0002" y2="293.6711">
				<stop  offset="0" style="stop-color:#FFFFFF"/>
				<stop  offset="0.4374" style="stop-color:#FBFBFB"/>
				<stop  offset="0.867" style="stop-color:#EFEFEF"/>
				<stop  offset="1" style="stop-color:#EAEAEA"/>
			</linearGradient>
			<path fill-rule="evenodd" clip-rule="evenodd" fill="url(#SVGID_4_)" d="M85.786,101.773c-5.434,0.731-11.59,4.596-14.418,7.914
				c-2.598,3.05-6.373,9.2-6.229,15.057l-0.22,165.209c0.674,4.519,1.738,9.307,7.462,15.361c5.542,5.214,10.039,8.395,15.8,8.561
				l78.088,0.217l-7.295,22.604l-70.793-0.22c-12.717-1.299-22.124-4.371-33.138-15.361c-7.616-7.599-12.374-17.873-13.131-28.881
				V122.419c0.43-10.323,6.748-21.386,13.902-29.249c8.453-9.29,18.386-13.859,30.391-14.989l74.116-0.589l-10.753,22.806
				L85.786,101.773z"/>
		</g>
	</g>
</g>
</svg>
